<svg width="32" height="32" version="1.1" viewBox="0 0 32 32" xmlns="http://www.w3.org/2000/svg"><circle cx="16" cy="16" r="16" fill="#fff"/><path d="m6 8-2 2v4h1v-1h20v1h3v-4l-2-2z" fill="#ba1d33"/><path d="m6 23v3h20v-3z" fill="#ba1d33"/><path d="m12 4-1 3h-2v1h3l1-3h6l1 3h3v-1h-2l-1-3z"/><path d="m6 23h-1v-4h1v-1h-1v-5h1v-1h9v1h1v-1h8v1h1v1h1v2h1v6h-1v1h-1v1h-19zm9-3h-4v-1h1v-1h2v-1h1v-3h-1v-1h-7v1h-1v3h3v-3h3v2h-1v1h-1v1h-2v1h-1v1h-1v2h9zm8 1h1v-1h1v-4h-1v-2h-1v-1h-6v9h6zm-4-7h3v1h1v4h-1v1h-3z"/></svg>
