<svg width="256" height="24" version="1.1" viewBox="0 0 256 24" xmlns="http://www.w3.org/2000/svg"><g y="0"><rect width="24" height="24"/><rect x="92" width="24" height="24"/><rect x="232" width="24" height="24"/><path d="m28 8e-7h20v3h3v18h-3v3h-20z"/><rect x="64" width="24" height="10"/><rect x="67" width="18" height="24"/><rect x="120" width="24" height="24"/><rect x="148" y="14" width="24" height="10"/><rect x="148" width="13" height="24"/><rect x="176" width="24" height="24"/><rect x="204" width="24" height="24"/></g><g fill="#fff"><path d="m3 3v4h11v3h-11v11h18v-4h-11v-3h11v-11z"/><path d="m123 3v18h18v-18zm7 4h4v10h-4z"/><path d="m207 3v18h18v-18zm7 4h4v10h-4z"/><path d="m235 3v7h3v4h-3v7h7v-7h4v7h7v-7h-3v-4h3v-7h-7v7h-4v-7z"/><path d="m179 3v18h18v-7h-4v-4h4v-7zm7 4h3v3h-3zm0 7h3v3h-3z"/><path d="m67 3v4h3v14h12v-14h3v-4z"/><path d="m169 17h-11v-14h-7v18h18z"/><path d="m45 18h3v-12h-3v-3h-14v18h14zm-7-11h3v10h-3z"/><path d="m95 3v18h18v-18zm7 4h4v10h-4z"/></g></svg>
